<?xml version="1.0" standalone="no"?><!DOCTYPE svg PUBLIC "-//W3C//DTD SVG 1.1//EN" "http://www.w3.org/Graphics/SVG/1.1/DTD/svg11.dtd">
<svg class="icon" height="512" width="512" viewBox="0 0 1095 1024" version="1.1"
  xmlns="http://www.w3.org/2000/svg">
  <circle cx="512" cy="512" r="512" fill="#4A235A" style="stroke:#fff;stroke-width:32px"/>
  <path style="fill:#fff" transform="scale(0.75) translate(120,80)" d="M488.448 600.32c-9.984 0-19.968-3.84-27.52-11.456L313.472 440.512C306.24 433.28 302.208 423.424 302.208 413.184L302.208 272c0-21.44 17.344-38.784 38.784-38.784S379.776 250.624 379.776 272l0 125.184 136.192 137.024c15.104 15.168 15.04 39.744-0.192 54.848C508.224 596.608 498.304 600.32 488.448 600.32zM408.384 751.104c-10.24 1.088-20.544 1.6-31.04 1.6-165.248 0-299.712-134.464-299.712-299.712s134.464-299.712 299.712-299.712c89.984 0 170.624 40.064 225.6 103.04C628.032 245.248 654.464 236.8 681.984 231.424 613.312 137.28 502.528 75.712 377.28 75.712c-208.064 0-377.28 169.28-377.28 377.28s169.28 377.28 377.28 377.28c24.832 0 49.088-2.56 72.576-7.168C433.6 800.832 419.52 776.768 408.384 751.104zM1086.4 847.616c-3.392-14.784-7.936-29.376-13.568-43.456-28.544-70.976-83.776-128.32-153.088-159.936C969.6 606.336 1001.984 546.56 1001.984 479.296c0-114.24-92.928-207.232-207.232-207.232S587.52 364.992 587.52 479.296c0 68.032 33.088 128.256 83.776 166.08-62.976 29.44-113.984 80.384-143.616 143.232-9.92 21.056-17.152 43.52-21.888 66.88-3.456 16.576-8.512 46.208-8.512 79.872 0 21.44 17.344 38.784 38.784 38.784s38.784-17.344 38.784-38.784c0-45.568 9.088-91.776 32.32-131.328 38.144-65.088 108.928-108.928 189.696-108.928 92.224 0 171.2 57.216 203.648 137.92 12.544 31.168 17.792 64.64 14.08 97.984-2.432 21.312 12.928 40.512 34.176 42.88 1.472 0.192 2.944 0.256 4.416 0.256 16.256 0 30.656-10.176 36.224-25.088C1100.608 919.616 1093.184 877.312 1086.4 847.616zM794.752 349.632c71.488 0 129.664 58.176 129.664 129.664 0 71.488-58.176 129.664-129.664 129.664S665.088 550.72 665.088 479.296C665.088 407.744 723.264 349.632 794.752 349.632z" />
</svg>